<?xml version="1.0" encoding="UTF-8"?>
<svg id="Artwork" xmlns="http://www.w3.org/2000/svg" width="141.55202mm" height="210.87006mm" viewBox="0 0 401.24983 597.74191">
  <defs>
    <style>
      .cls-1, .cls-2, .cls-3, .cls-4, .cls-5, .cls-6, .cls-7 {
        stroke-width: 0px;
      }

      .cls-1, .cls-8, .cls-9 {
        fill: #e85420;
      }

      .cls-10 {
        stroke: #fff;
      }

      .cls-10, .cls-11, .cls-12, .cls-13, .cls-8, .cls-14, .cls-9, .cls-15 {
        stroke-linejoin: round;
      }

      .cls-10, .cls-11, .cls-12, .cls-13, .cls-14, .cls-15 {
        stroke-linecap: round;
      }

      .cls-10, .cls-13 {
        fill: none;
      }

      .cls-10, .cls-13, .cls-8, .cls-15 {
        stroke-width: 1.5px;
      }

      .cls-11, .cls-12, .cls-13, .cls-8, .cls-14, .cls-16, .cls-9, .cls-15 {
        stroke: #2d2d2d;
      }

      .cls-11, .cls-12, .cls-14, .cls-5, .cls-15 {
        fill: #fff;
      }

      .cls-11, .cls-16, .cls-9 {
        stroke-width: .5px;
      }

      .cls-2 {
        fill: #f67f63;
      }

      .cls-3, .cls-6 {
        fill: rgba(59, 17, 50, .1);
      }

      .cls-4 {
        fill: #2d2d2d;
      }

      .cls-17, .cls-7 {
        opacity: .2;
      }

      .cls-14 {
        stroke-width: 3.5px;
      }

      .cls-16 {
        fill: #bfbfbf;
        stroke-miterlimit: 10;
      }

      .cls-6 {
        opacity: .5;
      }

      .cls-7 {
        fill: #606060;
      }
    </style>
  </defs>
  <path class="cls-7" d="M344.61545,407.15683c75.51407,43.59807,75.51227,114.28554-.00401,157.88489-75.51629,43.59935-197.95058,43.60039-273.46465.00232-75.51407-43.59807-75.51227-114.28554.00401-157.88489,75.51629-43.59935,197.95058-43.60039,273.46465-.00232Z"/>
  <path class="cls-14" d="M383.85976,484.07054v-13.367c0-.045.00273-.09.00273-.13454,0-.00455-.00023-.00909-.00023-.01364-.00545-28.22529-18.6574-56.44922-55.95629-77.98396-74.6105-43.07585-195.58009-43.07494-270.19287.00273C20.41422,414.10842,1.76091,442.33143,1.75273,470.55536h-.00273v13.62972h.00273v.02636c.00341,28.2262,18.65535,56.45194,55.95651,77.98805,74.6105,43.0763,195.58009,43.07539,270.19264-.00227,37.30639-21.53929,55.95992-49.76867,55.96061-77.9985,0-.00455-.00023-.00909-.00023-.01364,0-.03818-.0025-.07636-.0025-.11454Z"/>
  <path class="cls-12" d="M383.86226,484.18508c0-.03818-.0025-.07636-.0025-.11454v-13.51518h-1.4631c-5.04973-23.526-23.20829-46.29295-54.49068-64.35379-74.6105-43.0763-195.58009-43.07539-270.19287.00227-31.28217,18.06084-49.44164,40.82643-54.49341,64.35151h-1.46969v13.62972h.00273v.02636c.00341,28.2262,18.65535,56.45194,55.95651,77.98805,74.6105,43.0763,195.58009,43.07539,270.19264-.00227,37.30639-21.53929,55.95992-49.76867,55.96061-77.9985,0-.00455-.00023-.00909-.00023-.01364Z"/>
  <path class="cls-12" d="M383.86216,470.55517c-.00531-28.22519-18.65739-56.44886-55.95623-77.98353-74.61058-43.07616-195.58002-43.0754-270.19288.00228C20.41421,414.10858,1.76099,442.3315,1.75265,470.55517v.02655c.00341,28.22595,18.65549,56.4519,55.95661,77.98808,74.61058,43.07616,195.58002,43.0754,270.1925-.00228,37.30643-21.53922,55.96002-49.76896,55.96078-77.9987,0-.00455-.00038-.0091-.00038-.01365Z"/>
  <path class="cls-1" d="M366.84412,470.55629c-.00477-25.84678-17.08544-51.69265-51.24154-71.41295-68.32448-39.4465-179.10166-39.44605-247.42796.00227-34.15633,19.7203-51.23791,45.56526-51.24541,71.41068v.02454c.00045,3.1112.25453,6.22239.74973,9.32313,3.61912,22.65832,20.44571,44.74621,50.49227,62.09391,68.32425,39.44695,179.10144,39.44605,247.42728-.00182,30.0486-17.34906,46.87632-39.43786,50.49613-62.09709.49565-3.10301.74973-6.21648.74973-9.32995,0-.00409-.00023-.00818-.00023-.01273Z"/>
  <g class="cls-17">
    <path class="cls-5" d="M68.07268,482.94196c19.52784-7.50791,45.86043-4.41996,58.81547,6.89713,12.95504,11.31709,7.62673,26.57778-11.90112,34.0857-19.52784,7.50791-45.86043,4.41997-58.81547-6.89713-12.95504-11.31709-7.62672-26.57778,11.90112-34.0857Z"/>
    <path class="cls-5" d="M163.90383,381.39078c19.52784-7.50791,45.86043-4.41996,58.81547,6.89713,12.95504,11.31709,7.62673,26.57778-11.90112,34.0857-19.52784,7.50791-45.86043,4.41996-58.81547-6.89713-12.95504-11.31709-7.62673-26.57778,11.90112-34.0857Z"/>
    <path class="cls-5" d="M231.65457,525.51599c-29.08687,6.62929-61.17134,5.38194-88.44488-3.37926-6.57671,6.10656-16.31534,10.93878-27.76836,13.78306,38.07826,15.03825,85.90024,18.19853,128.95525,8.38604,9.45537-2.15477,18.45228-4.89601,26.81609-8.1565-12.15256-2.45003-22.59709-7.02607-29.96262-13.15603-3.13025.93432-6.34516,1.77778-9.60436,2.51491l.00888.00778Z"/>
    <path class="cls-5" d="M267.87981,482.24658c19.52784-7.50791,45.86043-4.41996,58.81547,6.89713s7.62673,26.57778-11.90112,34.0857c-19.52784,7.50791-45.86043,4.41996-58.81547-6.89713-12.95504-11.31709-7.62673-26.57778,11.90112-34.0857Z"/>
    <path class="cls-5" d="M331.9161,476.29031c1.80111-12.25646-1.3351-24.73456-9.15376-36.2648-13.64494-20.10271-40.84958-36.22588-75.09792-44.63848,2.29375,7.12654.75769,14.49175-4.43899,21.1445,21.47097,6.7524,38.14854,17.6695,47.11472,30.87844,4.3852,6.46824,6.7967,13.22425,7.17247,20.11241,12.84797.75817,24.82374,3.81456,34.39459,8.76016l.0089.00777Z"/>
    <path class="cls-5" d="M55.16283,475.09644c.86476-.37733,1.75626-.73132,2.64324-1.07234,3.5748-1.37441,7.38581-2.52558,11.42849-3.44055,6.58562-1.50009,13.44592-2.32065,20.45556-2.43592.733-19.39438,17.30332-37.22824,44.80583-48.2172-1.6264-1.60674-3.02884-3.28836-4.21641-5.01895-3.40231-5.01789-4.79487-10.39348-4.08527-15.72484-46.80591,15.05691-74.79357,44.96359-71.02705,75.93054l-.0044-.02074Z"/>
  </g>
  <path class="cls-3" d="M367.48576,470.61362c-.00146-9.13574-2.14746-18.27051-6.41602-27.13623-21.14844-7.54736-85.6936,18.17334-85.6936,18.17334,0,0-19.41162-7.49219-25.54199-12.26074-1.24829-3.2915-10.88379-9.46582-19.60278-8.64893-.92822.0874-2.38721.3457-4.2832.74512-9.24805,2.32031-32.23926,8.13721-44.49023,11.41943-24.30029,6.50879-48.99609,13.12402-52.21533,12.76611-1.15137-.12793-2.34131-.18604-3.55859-.24463-3.97314-.19385-8.24219-.40234-12.4126-3.09521l-8.85449-7.83301s-1.63086-1.06689-2.94287.3457c-1.31104,1.4126-.12207,2.71875-.12207,2.71875l6.13037,8.51465s-1.83594,2.08936-4.22705,2.8125l-3.27295-4.39355c-.55029-.73926-1.5957-.89209-2.33496-.34131-.73926.55029-.8916,1.5957-.34131,2.33496l1.30322,1.74902c-3.89062-1.58301-9.51709-3.86475-9.51709-3.86475,0,0-1.33936-.65137-2.14648.9126-.80762,1.56348.44385,2.8335.44385,2.8335l7.83301,4.42676,11.91943,4.76855,13.28125-.68115,35.07764-9.87598,70.44727-15.72949,18.14355,6.18018,30.26294,18.06299c-.04907,2.00049.31714,3.90625.71582,5.9873.52979,2.76123,1.11865,5.82959.87622,9.83252-.13037,2.14746.59619,3.55322.95825,4.25244.26733.51758.33472.64795-.29224.40625-.42944-.10742-.43359-.07617-.44287-.01904-.01904.12451-.05884.38037-4.54004-.36719-5.0564-.84229-20.75269-9.61182-32.8606-16.80029l-8.97192-7.69531h-37.91064s-1.11182,6.29199,4.47559,7.45264c3.66553.76123,16.73926.53076,25.30029.28174l1.17139,4.00537-30.94727,20.12891s-.9707,2.97705,5.24365,3.53564c6.21484.55811,36.62939-19.79395,36.62939-19.79395l3.11133.91211s-9.92383,28.09082-7.07373,29.20703,6.59912,3.09521,9.6084-1.52197c2.05322-3.15088,6.21216-14.53271,8.64795-21.44824l15.63306,8.82764c1.13525,1.81592,4.74194,5.10107,8.28369,7.55273,3.54175,2.45215,11.46606,4.88135,14.98462,5.79004l6.13037,5.78906,2.72461,7.83252,2.72363,13.28223c-.05664,2-1.04248,5.61279-3.81348,9.92334,7.53418-3.1377,14.73901-6.65771,21.52002-10.57275,30.04883-17.34912,46.87646-39.43799,50.49609-62.09717.49585-3.10303.75-6.21631.75-9.33008,0-.00391-.00049-.00781-.00049-.0127ZM225.31437,479.35923l-1.08496-.83447c3.10547-.10107,5.17188-.18701,5.17188-.18701l-4.08691,1.02148Z"/>
  <path class="cls-6" d="M367.48576,470.61362c-.00146-9.13574-2.14746-18.27051-6.41602-27.13623-21.14844-7.54736-85.6936,18.17334-85.6936,18.17334,0,0-19.41162-7.49219-25.54199-12.26074-1.24829-3.2915-10.88379-9.46582-19.60278-8.64893-.92822.0874-2.38721.3457-4.2832.74512-9.24805,2.32031-32.23926,8.13721-44.49023,11.41943-24.30029,6.50879-48.99609,13.12402-52.21533,12.76611-1.15137-.12793-2.34131-.18604-3.55859-.24463-3.97314-.19385-8.24219-.40234-12.4126-3.09521l-8.85449-7.83301s-1.63086-1.06689-2.94287.3457c-1.31104,1.4126-.12207,2.71875-.12207,2.71875l6.13037,8.51465s-1.83594,2.08936-4.22705,2.8125l-3.27295-4.39355c-.55029-.73926-1.5957-.89209-2.33496-.34131-.73926.55029-.8916,1.5957-.34131,2.33496l1.30322,1.74902c-3.89062-1.58301-9.51709-3.86475-9.51709-3.86475,0,0-1.33936-.65137-2.14648.9126-.80762,1.56348.44385,2.8335.44385,2.8335l7.83301,4.42676,11.91943,4.76855,13.28125-.68115,35.07764-9.87598,70.44727-15.72949,18.14355,6.18018,30.26294,18.06299c-.04907,2.00049.31714,3.90625.71582,5.9873.52979,2.76123,1.11865,5.82959.87622,9.83252-.13037,2.14746.59619,3.55322.95825,4.25244.26733.51758.33472.64795-.29224.40625-.42944-.10742-.43359-.07617-.44287-.01904-.01904.12451-.05884.38037-4.54004-.36719-5.0564-.84229-20.75269-9.61182-32.8606-16.80029l-8.97192-7.69531h-37.91064s-1.11182,6.29199,4.47559,7.45264c3.66553.76123,16.73926.53076,25.30029.28174l1.17139,4.00537-30.94727,20.12891s-.9707,2.97705,5.24365,3.53564c6.21484.55811,36.62939-19.79395,36.62939-19.79395l3.11133.91211s-9.92383,28.09082-7.07373,29.20703,6.59912,3.09521,9.6084-1.52197c2.05322-3.15088,6.21216-14.53271,8.64795-21.44824l15.63306,8.82764c1.13525,1.81592,4.74194,5.10107,8.28369,7.55273,3.54175,2.45215,11.46606,4.88135,14.98462,5.79004l6.13037,5.78906,2.72461,7.83252,2.72363,13.28223c-.05664,2-1.04248,5.61279-3.81348,9.92334,7.53418-3.1377,14.73901-6.65771,21.52002-10.57275,30.04883-17.34912,46.87646-39.43799,50.49609-62.09717.49585-3.10303.75-6.21631.75-9.33008,0-.00391-.00049-.00781-.00049-.0127ZM225.31437,479.35923l-1.08496-.83447c3.10547-.10107,5.17188-.18701,5.17188-.18701l-4.08691,1.02148Z"/>
  <path class="cls-4" d="M67.75773,97.8314c-4.47949.76465-8.21973,2.30322-14.62207.54346-.55029-.15137-12.82178-3.26074-13.74121-12.78174,0,0-.95996-14.86816-11.58398-17.35791-2.16846-.5083-2.51143-.24601-2.83838.80176h0s-1.13817,3.21419,1.72217,8.02832c1.36903,2.30417,1.88623,3.70166,2.42871,7.95801.02441.39941.04199.80518.05225,1.21729.33057,13.61426,14.25146,20.35156,21.58252,22.08838.02002.00391.04004.00439.06104.00928.61719.1543,1.23682.29443,1.85449.40674,4.521.87549,9.23389.43604,13.95264-.1875l7.90625-11.53125c-2.31982.17041-4.60059.45898-6.77441.80518Z"/>
  <path class="cls-14" d="M367.71184,235.17108s4.43107-6.35726-8.09156-14.64147c-.24852-.16433-.52939-.3595-.82544-.56883-.0809-.05714-.16559-.11781-.25003-.17849-.25281-.18101-.51979-.37568-.80344-.58501-.06775-.05006-.13045-.09556-.19998-.14764-.34812-.25838-.71951-.53849-1.11061-.83631-.11048-.08393-.22779-.17394-.3418-.26141-.30338-.23208-.61838-.47428-.94552-.72709-.14259-.11023-.28265-.21843-.42978-.3322-.40172-.31197-.8176-.63557-1.25193-.97536-.28265-.22045-.57894-.45304-.87474-.68513-.17874-.14006-.35621-.27911-.53976-.42321-14.40736-11.31241-43.71911-34.84433-76.64181-51.2737-.01239-.00607-.02478-.01264-.03742-.01871-2.70056-1.34699-5.42438-2.64545-8.1669-3.88626-.0086-.00354-.01669-.00758-.02528-.01163.00202.00101.00455.00202.00657.00303-18.12853-8.19825-37.04204-13.84257-54.94355-13.84257-24.65897,0-38.14457,7.32048-38.14583,7.32099h0s-13.01157-11.14758-8.28421-49.70524c8.28421-67.56756,4.71928-72.64457,4.71928-72.64457l-.00101.00152c-2.45154-16.41268-16.60406-29.0018-33.69959-29.0018-18.16898,0-33.01295,14.22028-34.0189,32.13771l-.0584-.04146-1.06612,12.02636c-.39869,4.49756-1.91633,8.82422-4.41489,12.58508L29.15985,157.78929c-1.09797,1.60132,1.04488,3.42209,2.448,2.08015l90.08291-86.14331s3.89763.05562,9.10029-.56428c.00076.00051,4.03061,8.65584,4.03061,27.43941l-4.14471,73.11278c-.37973,31.88439-8.44011,74.34247,21.82273,93.61953,10.68316,6.80474,25.33499,11.84989,41.79368,14.99895,2.38302,7.34323,4.7658,13.09424,4.85656,13.35313h.01264c.08773.32967.29756.64872.61257.94047v26.63496c0,8.08651-4.52259,13.1979-4.52259,23.26849v.01972c0,1.24357-.66575,2.39197-1.74492,3.00993l-64.30095,36.8204c-4.66045,2.66869-8.60129,6.43165-11.48225,10.96395l-17.02732,26.78724c-.8267,1.22665-.51448,2.88966.70029,3.73356,1.20516.83681,2.85806.56024,3.72496-.62344l6.90966-10.79667c2.86438-3.28658,8.26246-1.01833,7.91864,3.32804l-.06978.88333-.62571,7.90549h.00025l-1.6668,21.06749c-.1147,1.44977.76801,2.86512,2.17864,3.2188,1.83547.4602,3.52585-.81248,3.69928-2.57058l3.50147-32.16855c.65302-5.99978,8.38154-8.00308,11.86734-3.07675l12.60935,16.18211c.94477,1.33536,2.8027,1.63267,4.11682.65883,1.26356-.93592,1.55759-2.70511.6649-3.99901l-23.99204-33.17121c-.5256-.72709-.30464-1.74947.47453-2.19392l65.85323-37.58888c.89572-.5117,1.95273-.69878,2.95615-.45911.60524.14461,1.23677.22147,1.88624.22147,4.50236,0,8.15224-3.65013,8.15224-8.15224,0-.08292-.00986-.16281-.01239-.24523h.00657c0-10.07008-4.6093-14.93675-4.6093-23.02326v-26.57378c.3547-.30742.58223-.64872.67628-1.00165h.01239s1.88144-4.5734,3.98839-10.80476c7.82838.82316,15.87343,1.24991,23.94603,1.27064.32588,13.31571,9.52249,35.43288,9.70224,35.9466h.01264c.08773.32967.29756.64872.61282.94047v26.63496c0,8.08651-4.79436,10.07008-4.79436,20.14067,0,10.07008,4.79436,12.05366,4.79436,20.14067v72.16473c0,.95033-.17425,1.87386-.49792,2.73538-.54813,1.45901-2.00779,2.37452-3.56611,2.40286l-45.06783.81957c-1.47921.02073-2.66719,1.22564-2.66719,2.7046,0,1.46733,1.16977,2.66719,2.6366,2.7041l20.80482.25787c4.33323.47832,5.54876,6.20608,1.7831,8.40252l-.76552.44647-6.8505,3.99547h.00025l-18.23664,10.63684c-1.38218.80618-2.00425,2.56713-1.26318,3.98529.7865,1.50508,2.62831,2.024,4.06477,1.22274l28.41983-15.47171c5.30066-2.88567,11.3545,2.3195,9.29601,7.99284l-5.82752,16.06105c-.53732,1.48089.09014,3.20896,1.53978,3.82563,1.54483.65716,3.2967-.11182,3.87713-1.65362l14.36868-38.16934c.05688-.99305,1.19075-1.52801,1.99319-.94097l3.51336,2.5691c.76389.55864,1.8513.45712,2.49751-.3071.61691-.72956.49987-1.83601-.16231-2.52475l-1.00832-1.04875c-1.10084-1.14498-1.71571-2.67166-1.71571-4.26001v-78.55081c0-8.08701,4.79436-10.07059,4.79436-20.14067,0-10.07059-4.79436-12.05417-4.79436-20.14067v-26.57327c.35445-.30793.58248-.64923.67628-1.00215h.01239s9.71791-23.61535,9.71791-36.66358c0-.28972-.03362-.57894-.08747-.86715,6.72055-.80496,13.2879-1.92846,19.59814-3.36141.32436-.07281.64695-.14815.97005-.22298.7678-.17899,1.53584-.35748,2.29555-.54608,1.22362-.30135,2.43839-.61282,3.63749-.94097,45.08052-12.34389,61.07125-34.49798,61.07176-34.49899.00076.00051,6.23237,5.40921,12.81691,5.20291,1.84377-.05764,3.71535-.55518,5.4853-1.73531.00025,0,1.92669.5299,4.16637.57793s4.79234-.38529,6.04453-2.31173c2.50463-3.85339-4.23843-9.82536-11.75206-11.55966Z"/>
  <path class="cls-9" d="M211.54437,346.28432h.00657c0-10.07008-4.6093-14.93675-4.6093-23.02326v-29.01141c0,.73435-.67198,1.46675-2.01533,1.86751-1.01703.30341-2.11731.30335-3.13443.00022-1.34453-.40071-2.01676-1.13325-2.01676-1.86774v29.01141c0,8.08651-4.52259,13.1979-4.52259,23.26849,0,.00655,0,.01309.00003.01964.00315,1.20682-.5733,2.33922-1.62058,2.93892l-64.42519,36.89142c-4.66052,2.66873-8.60143,6.43174-11.48243,10.96411l-17.02727,26.78715c-.8267,1.22665-.51448,2.88966.70029,3.73356,1.20516.83681,2.85806.56024,3.72496-.62344l6.90966-10.79667c2.86438-3.28658,8.26246-1.01833,7.91864,3.32804l-.06978.88333-.62571,7.90549h.00025l-1.6668,21.06749c-.11471,1.44983.76802,2.86535,2.17875,3.21889,1.83533.45994,3.52575-.81269,3.69918-2.57067l3.50147-32.16855c.65302-5.99978,8.38154-8.00308,11.86734-3.07675l12.60935,16.18211c.94477,1.33536,2.8027,1.63267,4.11682.65883,1.26356-.93592,1.55759-2.70511.6649-3.99901l-23.99204-33.17121c-.5256-.72709-.30464-1.74947.47453-2.19392l65.85307-37.58912c.8959-.51139,1.95283-.69842,2.95623-.4589.60536.1445,1.23674.22149,1.88633.22149,4.50236,0,8.15224-3.65013,8.15224-8.15224,0-.08292-.00986-.16281-.01239-.24523Z"/>
  <path class="cls-12" d="M213.26013,253.32367c-5.45092-3.14703-14.28854-3.14703-19.73946,0-2.72559,1.57351-4.08851,3.63597-4.08851,5.69843h0c.00025,13.22217,9.53462,36.14076,9.71766,36.66358h.01264c.13374.50259.52332.98699,1.19379,1.3743,1.67565.96727,4.39214.96727,6.06753,0,.67072-.38731,1.0603-.8717,1.19404-1.3743h.01239s9.71791-23.61535,9.71791-36.66358h0c.00025-2.06246-1.36241-4.12491-4.088-5.69843Z"/>
  <line class="cls-15" x1="119.33668" y1="419.46304" x2="119.95077" y2="410.16508"/>
  <line class="cls-15" x1="127.23808" y1="419.93637" x2="128.62394" y2="408.49039"/>
  <line class="cls-15" x1="112.14258" y1="417.16569" x2="117.38256" y2="409.61962"/>
  <line class="cls-15" x1="139.56417" y1="416.92233" x2="133.29194" y2="407.78252"/>
  <path class="cls-9" d="M254.7744,472.76571c-1.10084-1.14498-1.71571-2.67166-1.71571-4.26001v-78.55081c0-8.08701,4.79436-10.07059,4.79436-20.14067,0-10.07059-4.79436-12.05417-4.79436-20.14067v-29.01141c0,.73442-.67212,1.46691-2.01572,1.86764-1.01719.30338-2.11762.30338-3.13482,0-1.3436-.40073-2.01572-1.13321-2.01572-1.86764v29.01141c0,8.08651-4.79436,10.07008-4.79436,20.14067,0,10.07008,4.79436,12.05366,4.79436,20.14067v72.16473c0,.95033-.17425,1.87386-.49792,2.73538-.54813,1.45901-2.00779,2.37452-3.56611,2.40286l-45.06783.81957c-1.47921.02073-2.66719,1.22564-2.66719,2.7046,0,1.46733,1.16977,2.66719,2.6366,2.7041l20.80482.25787c4.33323.47832,5.54876,6.20608,1.7831,8.40252l-.76552.44647-6.8505,3.99547h.00025l-18.23664,10.63684c-1.38218.80618-2.00425,2.56713-1.26318,3.98529.7865,1.50508,2.62831,2.024,4.06477,1.22274l28.41971-15.47164c5.30071-2.8857,11.35459,2.31951,9.29609,7.9929l-5.88172,16.21043c-.55796,1.53761.25762,3.23349,1.80686,3.75732h0c1.48958.50411,3.11037-.26343,3.66429-1.73481l14.36868-38.16934c.05688-.99305,1.19075-1.52801,1.99319-.94097l3.51336,2.5691c.76389.55864,1.8513.45712,2.49751-.3071.61691-.72956.49987-1.83601-.16231-2.52475l-1.00832-1.04875Z"/>
  <path class="cls-12" d="M259.37727,279.73611c-5.45092-3.14703-14.28854-3.14703-19.73946,0-2.72559,1.57351-4.08851,3.63597-4.08851,5.69843h0c.00025,13.22217,9.53462,36.14076,9.71766,36.66358h.01264c.13374.50259.52332.98699,1.19379,1.3743,1.67565.96727,4.39214.96727,6.06753,0,.67072-.38731,1.0603-.8717,1.19404-1.3743h.01239s9.71791-23.61535,9.71791-36.66358h0c.00025-2.06246-1.36241-4.12491-4.088-5.69843Z"/>
  <path class="cls-7" d="M213.26013,252.83425c-5.45092-3.14703-14.28854-3.14703-19.73946,0-2.72559,1.57351-4.08851,3.63597-4.08851,5.69843h0c.00025,13.22217,9.53462,36.14076,9.71766,36.66358h.01264c.13374.50259.52332.98699,1.19379,1.3743,1.67565.96727,4.39214.96727,6.06753,0,.67072-.38731,1.0603-.8717,1.19404-1.3743h.01239s9.71791-23.61535,9.71791-36.66358h0c.00025-2.06246-1.36241-4.12491-4.088-5.69843Z"/>
  <path class="cls-7" d="M258.91774,280.14208c-5.3458-3.08634-14.01298-3.08634-19.35878,0-2.67302,1.54317-4.00966,3.56585-4.00966,5.58853h0c.00025,12.96717,9.35075,35.44377,9.53025,35.95651h.0124c.13116.4929.51323.96795,1.17076,1.34779,1.64334.94861,4.30743.94861,5.95052,0,.65778-.37984,1.03985-.85489,1.17101-1.34779h.01215s9.5305-23.15992,9.5305-35.95651h0c.00025-2.02268-1.33614-4.04536-4.00916-5.58853Z"/>
  <line class="cls-15" x1="223.71707" y1="488.15487" x2="233.75955" y2="482.49099"/>
  <line class="cls-15" x1="216.20477" y1="483.38038" x2="226.25314" y2="477.24174"/>
  <line class="cls-15" x1="216.97102" y1="474.25034" x2="226.15799" y2="474.25034"/>
  <g>
    <polygon class="cls-11" points="130.79105 73.16185 130.79105 73.16185 130.7913 73.16185 130.79105 73.16185"/>
    <path class="cls-15" d="M130.67695,173.71404c-.37965,31.88458-8.44011,74.34247,21.82273,93.61953,30.26284,19.27656,92.29807,24.50627,137.37934,12.16237,45.08128-12.34389,61.07176-34.49899,61.07176-34.49899,0,0,10.21065,8.86214,18.30221,3.4676,0,0,7.70627,2.11909,10.2109-1.7338,2.50463-3.85339-4.23843-9.82536-11.75206-11.55966,0,0,4.43107-6.35726-8.09156-14.64147-12.52263-8.28421-85.92438-74.75051-147.38142-74.75051-24.65998,0-38.14583,7.32099-38.14583,7.32099,0,0-13.01157-11.14758-8.28421-49.70524,8.28421-67.56756,4.71928-72.64457,4.71928-72.64457l-.00101.00152c-2.45154-16.41268-16.60406-29.0018-33.69959-29.0018-18.16898,0-33.01295,14.22028-34.0189,32.13771l-.0584-.04146-1.06612,12.02636c-.39869,4.49756-1.91633,8.82422-4.41489,12.58508,4.7706-6.59844,7.08258-7.17587,9.10535-5.15336,2.02302,2.02302,7.12834,10.88516,17.05002,9.63272,6.49985-.82013,9.85064-2.13324,11.3971-2.94377h0c-3.34625,2.16206-12.97163,8.79995-13.1309,13.73285,0,0,3.89763.05562,9.10029-.56428h.00025-.00025c.00076.00051,4.03061,8.65561,4.03061,27.43952l-4.14471,73.11267Z"/>
    <path class="cls-8" d="M134.82166,59.99327c-1.54646.81052-4.89726,2.12364-11.3971,2.94377-9.92168,1.25244-15.02701-7.6097-17.05002-9.63272-2.02276-2.02251-4.33475-1.44508-9.10535,5.15336L29.15974,157.78912c-1.09801,1.60134,1.04496,3.42251,2.44824,2.0806l90.08278-86.14359c.15927-4.93291,9.78466-11.57079,13.1309-13.73285Z"/>
  </g>
  <path class="cls-15" d="M173.41502,152.40044s3.25753,3.80882,12.69765,7.46927"/>
  <path class="cls-4" d="M261.64402,258.45773c.01969.30604.03243.64433.03853,1.00994.05071,3.04176-.35822,7.97498-1.04369,11.96502,3.00346-1.37411,5.98896-3.04721,9.14867-4.45884,11.78319-5.26425,11.21076-17.14488,11.34972-18.05176,0,0,1.87839,7.00785-.07225,11.92056,6.12979-3.60486,13.51622-8.65797,18.60776-11.88258,9.52807-6.03439,9.52807-17.37699,9.52807-17.37699,0,0,1.09431,5.51015.96454,9.07659.53318-.49703,1.03654-.98142,1.48376-1.44256,12.52263-12.90817,5.97222-20.22865,5.97222-20.22865,0,0,15.41255,15.2194,12.13734-1.15637-3.26661-16.3338-52.01571-53.05806-62.58283-58.21344,44.11098,19.94651,83.56916,55.03962,92.44445,60.91097,12.52263,8.28421,8.09156,14.64147,8.09156,14.64147,7.51363,1.7343,14.25668,7.70627,11.75206,11.55966-2.50463,3.85288-10.2109,1.7338-10.2109,1.7338-8.09156,5.39454-18.30221-3.4676-18.30221-3.4676,0,0-15.99048,22.1551-61.07176,34.49899-4.2809,1.17205-8.72663,2.16813-13.27172,3.02568-10.38989,1.95981-21.3509,3.10304-32.40392,3.47569-1.32879.045-2.65707.0991-3.98738.12186-32.04139-.94047-33.68872-30.92319-23.93137-35.92081,15.79758-8.09156-.38529,28.89815,17.53164,29.2976,1.46676.03277,3.13296-.12557,4.96175-.44956,8.08423-1.43221,16.71191-5.12723,22.86595-20.58865Z"/>
  <path class="cls-13" d="M309.40935,240.69267s1.19144-11.4937-4.93669-21.82486"/>
  <path class="cls-13" d="M275.8633,229.19897s8.86205,23.93643,5.2017,31.64368"/>
  <path class="cls-13" d="M259.34507,270.08796s6.41574-17.38604-6.60044-39.44407"/>
  <path class="cls-10" d="M320.41491,196.92916s12.42629,6.06865,17.339,22.44438c4.85026,16.16754,7.95135,24.7929,14.0561,29.41214"/>
  <path class="cls-10" d="M370.88063,233.25083s-1.02415,5.58138-8.27415,2.78742c-4.0448-1.55876-13.08881-5.50701-19.0729-10.01809"/>
  <path class="cls-10" d="M370.87973,251.48335c.1331.02477-14.55875-4.51293-23.30039-14.19284"/>
  <path class="cls-15" d="M160.70342,145.97176s7.80255,41.61361,41.32462,44.50344"/>
  <g>
    <path class="cls-16" d="M240.216,286.11916c.26722-.00455.53394-.0177.80117-.02427-.31576.00607-.63178.01062-.94755.01567.05006.00152.09607.00708.14638.0086Z"/>
    <polygon class="cls-11" points="130.79105 73.16185 130.7913 73.16235 130.7913 73.16185 130.79105 73.16185"/>
    <path class="cls-7" d="M214.7888,274.09236c-46.40855-2.56505-70.86786-24.62437-74.48563-47.05301-3.68325-22.83567-1.15308-93.89813,0-118.45395,1.15308-24.55582-2.01948-37.8508-2.01948-37.8508-4.24652,1.52194-7.44588,2.00178-7.44588,2.00178v.00051c.00405.00758,4.03036,8.66292,4.03036,27.43891l-4.14463,73.11278c-.37973,31.88439-7.72509,68.21892,19.31943,91.7994,14.09299,12.28787,49.36698,20.88931,83.05797,20.33717-11.82556-2.72092-14.40695-6.87208-18.31215-11.33278Z"/>
    <path class="cls-7" d="M241.01717,286.09489c5.22819-.10669,10.44855-.38023,15.60873-.8353-.00379-.00455-.00784-.0086-.01163-.01315-4.10696.36102-8.25235.6108-12.41089.75086-1.06182.0359-2.12389.07028-3.18621.09759Z"/>
  </g>
  <path class="cls-15" d="M167.92801,40.9263s-3.75678,12.42629-9.10298,17.19451"/>
  <line class="cls-15" x1="109.40887" y1="62.06284" x2="104.49616" y2="68.23523"/>
  <line class="cls-15" x1="124.00253" y1="62.85926" x2="31.60798" y2="159.86971"/>
  <path class="cls-4" d="M115.41637,165.94845c-4.24171-1.50171-8.92231-3.58895-11.20851-7.39632-2.04628-3.42007-1.83341-7.96111-1.1857-12.713,1.67717-12.91121,6.45737-28.48202-2.33651-40.18477-2.74076-3.48327-6.24577-5.70045-10.12191-7.03834l-8.32567,8.74129c2.23007.1891,4.41009.64215,6.51729,1.5002,12.14316,5.30656,6.806,25.36988,6.96957,36.44768-.6199,13.65094,5.20645,21.71722,19.24091,22.79724,1.31185.13601,1.64531-1.78335.45051-2.15397Z"/>
  <line class="cls-15" x1="232.74644" y1="496.8176" x2="236.39441" y2="486.35007"/>
  <path class="cls-15" d="M130.7913,73.16185s10.69473-1.60331,18.93075-8.24993"/>
  <path class="cls-2" d="M106.05469,54.14654c-2.00093-2.00043-4.16302-1.69404-8.88153,4.83236L29.74267,157.85216c-.63564.9277-.30704,1.30946.08128,1.67972L107.88042,56.51839c-.84718-1.01922-1.34863-1.89476-1.82573-2.37186Z"/>
  <path class="cls-2" d="M128.93928,389.15026s64.05799-36.60442,66.36973-38.04951c2.31224-1.44508,3.66075-2.02302,3.4681-5.8759-.19315-3.85339,3.01455-9.24743,3.01455-14.5454s.30251-32.49668.30251-32.49668c-1.08369-.19658-2.04095-.7947-2.04095-.7947l.01806,25.87282c0,8.08651-4.56795,13.21701-4.56795,23.2876,0,.00657,0-.00657,0,0,.00354,1.20693-.50586,2.43749-1.41039,2.91471l-64.76168,37.20183c-4.66037,2.6687-8.46825,6.20423-11.34931,10.73668l-16.99731,26.75185c-.74116,1.07434-.55709,2.48652.20216,3.09971,5.39353-8.61034,15.53889-24.33541,18.38456-28.63881,3.94946-5.97248,9.36793-9.46419,9.36793-9.46419Z"/>
  <path class="cls-2" d="M248.20947,383.85752l-1.30454-6.46501c-.82776-4.10219-1.07121-8.32274-.35238-12.44542l1.85032-9.53638c.34917-2.00258.36187-4.01929.36187-6.05209l.16287-24.36606c-.46064-.02107-1.35693-.15092-1.54502-.20704,0,0-.6134-.22041-1.21244-.58766l.00502,25.48779c0,8.08651-4.81905,10.05779-4.81905,20.12838,0,10.07008,4.80438,12.05366,4.80438,20.14067l.00965,72.16473c0,.9501-.17039,1.91935-.49368,2.78057-.54789,1.45952-2.3546,2.65679-3.91332,2.68514l-45.02087.77779c-1.36096,0-2.39229.98382-2.34832,2.49924.00283.00274.15079.0044.15362.00714l48.27994-.8927c3.12486-.05778,5.46515-2.59788,5.48341-5.72322l.41794-73.20633c.0141-2.41404-.0419-4.82317-.5194-7.18955Z"/>
  <path class="cls-2" d="M121.60789,409.35809c-.49632,0-.90779.38453-.94134.87972l-2.68461,39.62303s.08103,2.34581,2.25448,2.67986l2.31355-42.18745c.02964-.54057-.4007-.99516-.94208-.99516h0Z"/>
  <path class="cls-2" d="M192.53329,501.28104l34.46312-20.61832c.69663-.41976.8194-1.37955.25086-1.96114h0c-.40658-.41592-1.04493-.49971-1.54508-.20281l-32.3609,19.06315c-1.08295.65882-1.53515,2.00105-1.07165,3.18088l.26366.53824Z"/>
  <path class="cls-2" d="M238.73359,486.60533c.54192.24922.80458.87039.60588,1.43279l-9.4082,26.6284-.41538-.20345c-1.0781-.52805-1.59553-1.77526-1.20786-2.91142l8.56282-24.15973c.26894-.75881,1.13132-1.12298,1.86274-.7866h0Z"/>
  <ellipse class="cls-4" cx="137.01974" cy="40.41749" rx="5.20929" ry="4.46163" transform="translate(11.55267 108.7256) rotate(-45)"/>
  <ellipse class="cls-5" cx="27.85268" cy="74.08836" rx="1.00498" ry="1.37161"/>
</svg>